<svg width="17" height="17" viewBox="0 0 17 17" fill="none" xmlns="http://www.w3.org/2000/svg">
<g id="Icons">
<path id="Vector (Stroke)" d="M7 1.5H10C10.2761 1.5 10.5 1.72386 10.5 2V3H6.5V2C6.5 1.72386 6.72386 1.5 7 1.5ZM11.5 3V2C11.5 1.17157 10.8284 0.5 10 0.5H7C6.17157 0.5 5.5 1.17157 5.5 2V3H3.00566C3.00226 2.99997 2.99885 2.99997 2.99544 3H2C1.72386 3 1.5 3.22386 1.5 3.5C1.5 3.77614 1.72386 4 2 4H2.5384L3.39116 14.6595C3.47431 15.6989 4.34207 16.5 5.38479 16.5H11.6152C12.6579 16.5 13.5257 15.6989 13.6088 14.6595L14.4616 4H15C15.2761 4 15.5 3.77614 15.5 3.5C15.5 3.22386 15.2761 3 15 3H14.0046C14.0011 2.99997 13.9977 2.99997 13.9943 3H11.5ZM13.4584 4L12.612 14.5797C12.5704 15.0994 12.1366 15.5 11.6152 15.5H5.38479C4.86343 15.5 4.42955 15.0994 4.38798 14.5797L3.5416 4H13.4584ZM5.97064 5.00086C6.24631 4.98465 6.48292 5.19497 6.49914 5.47064L6.99914 13.9706C7.01535 14.2463 6.80503 14.4829 6.52936 14.4991C6.2537 14.5154 6.01708 14.305 6.00086 14.0294L5.50086 5.52936C5.48465 5.2537 5.69497 5.01708 5.97064 5.00086ZM11.0294 5.00086C11.305 5.01708 11.5154 5.2537 11.4991 5.52936L10.9991 14.0294C10.9829 14.305 10.7463 14.5154 10.4706 14.4991C10.195 14.4829 9.98465 14.2463 10.0009 13.9706L10.5009 5.47064C10.5171 5.19497 10.7537 4.98465 11.0294 5.00086ZM8.5 5C8.77614 5 9 5.22386 9 5.5V14C9 14.2761 8.77614 14.5 8.5 14.5C8.22386 14.5 8 14.2761 8 14V5.5C8 5.22386 8.22386 5 8.5 5Z" fill="#AEB4C1"/>
</g>
</svg>
