<svg width="17" height="17" viewBox="0 0 17 17" fill="none" xmlns="http://www.w3.org/2000/svg">
<g id="Icons">
<g id="Vector">
<path d="M16.0016 2.43934C16.1969 2.6346 16.1969 2.95118 16.0016 3.14645L14.9587 4.18933L12.9587 2.18933L14.0016 1.14645C14.1969 0.951184 14.5134 0.951185 14.7087 1.14645L16.0016 2.43934Z" fill="#AEB4C1"/>
<path d="M14.2516 4.89644L12.2516 2.89644L5.43861 9.70943C5.38372 9.76432 5.34237 9.83123 5.31782 9.90487L4.51326 12.3186C4.44812 12.514 4.63405 12.6999 4.82949 12.6348L7.24317 11.8302C7.31681 11.8057 7.38372 11.7643 7.43861 11.7094L14.2516 4.89644Z" fill="#AEB4C1"/>
<path fill-rule="evenodd" clip-rule="evenodd" d="M1.5 14C1.5 14.8284 2.17157 15.5 3 15.5H14C14.8284 15.5 15.5 14.8284 15.5 14V8C15.5 7.72386 15.2761 7.5 15 7.5C14.7239 7.5 14.5 7.72386 14.5 8V14C14.5 14.2761 14.2761 14.5 14 14.5H3C2.72386 14.5 2.5 14.2761 2.5 14V3C2.5 2.72386 2.72386 2.5 3 2.5H9.5C9.77614 2.5 10 2.27614 10 2C10 1.72386 9.77614 1.5 9.5 1.5H3C2.17157 1.5 1.5 2.17157 1.5 3V14Z" fill="#AEB4C1"/>
</g>
</g>
</svg>
