<svg width="32" height="32" viewBox="0 0 32 32" fill="none" xmlns="http://www.w3.org/2000/svg">
<g clip-path="url(#clip0_1583_3971)">
<path d="M24.38 0H0V32H32V0H24.38ZM20.91 26.38C17.66 26.21 14.19 26.6 10.97 26.38C9.6 26.29 8.24 25.7 7.27 24.73C6.27 23.73 5.71 22.38 5.62 20.97C5.8 17.69 5.38 14.16 5.62 10.91C5.83 8.08 8.07 5.84 10.9 5.63C14.15 5.39 17.68 5.81 20.96 5.63C23.9 5.81 26.16 8.04 26.36 10.98C26.22 14.25 26.55 17.67 26.36 20.92C26.18 23.97 23.94 26.21 20.89 26.39L20.91 26.38Z" fill="white"/>
<path d="M7.26991 24.7299C6.26991 23.7299 5.70991 22.3799 5.61991 20.9699C5.79991 17.6899 5.37991 14.1599 5.61991 10.9099C5.82991 8.07992 8.06991 5.83992 10.8999 5.62992C14.1499 5.38992 17.6799 5.80992 20.9599 5.62992C23.8999 5.80992 26.1599 8.03992 26.3599 10.9799C26.2199 14.2499 26.5499 17.6699 26.3599 20.9199C26.1799 23.9699 23.9399 26.2099 20.8899 26.3899C17.6399 26.2199 14.1699 26.6099 10.9499 26.3899C9.57991 26.2999 8.21991 25.7099 7.24991 24.7399L7.26991 24.7299ZM10.7399 7.51992C9.05991 7.77992 7.74991 9.11992 7.50991 10.7899C7.68991 14.1399 7.23991 17.7899 7.50991 21.0999C7.64991 22.8399 9.14991 24.2999 10.8599 24.4999C14.1899 24.3099 17.8199 24.7599 21.1099 24.4999C22.8499 24.3599 24.3199 22.8599 24.5099 21.1499C24.3199 17.8199 24.7699 14.1899 24.5099 10.8999C24.3799 9.18992 22.8999 7.70992 21.2199 7.49992H10.7399V7.51992Z" fill="#1C2851"/>
<path d="M10.7399 7.51953H21.2199C22.8999 7.71953 24.38 9.19953 24.51 10.9095C24.77 14.2095 24.3099 17.8295 24.51 21.1595C24.3099 22.8695 22.84 24.3695 21.11 24.5095C17.8099 24.7695 14.1899 24.3095 10.8599 24.5095C9.14995 24.3095 7.64995 22.8395 7.50995 21.1095C7.24995 17.7995 7.69995 14.1495 7.50995 10.7995C7.74995 9.11953 9.05995 7.77953 10.7399 7.52953V7.51953ZM21.2299 9.69953C20.0599 9.86953 20.2899 11.6695 21.4599 11.5595C22.6899 11.4395 22.4799 9.51953 21.2299 9.69953ZM15.6099 11.3295C9.52995 11.8295 10.22 21.0495 16.28 20.6895C22.34 20.3295 21.8399 10.8195 15.6099 11.3295Z" fill="white"/>
<path d="M15.6099 11.3301C21.8299 10.8101 22.4599 20.3201 16.2799 20.6901C10.0999 21.0601 9.53991 11.8401 15.6099 11.3301ZM15.6099 13.2001C12.0699 13.6301 12.5699 19.1901 16.3299 18.8001C20.0899 18.4101 19.4499 12.7401 15.6099 13.2001Z" fill="#1C2851"/>
<path d="M21.23 9.70037C22.47 9.52037 22.69 11.4404 21.46 11.5604C20.3 11.6704 20.07 9.87037 21.23 9.70037Z" fill="#1C2851"/>
<path d="M15.6099 13.2003C19.4599 12.7403 19.9299 18.4303 16.3299 18.8003C12.7299 19.1703 12.0699 13.6303 15.6099 13.2003Z" fill="white"/>
</g>
<defs>
<clipPath id="clip0_1583_3971">
<rect width="32" height="32" rx="4" fill="white"/>
</clipPath>
</defs>
</svg>
