<svg width="32" height="32" viewBox="0 0 32 32" fill="none" xmlns="http://www.w3.org/2000/svg">
<g clip-path="url(#clip0_1583_3953)">
<path d="M29.07 0H0V32H32V0H29.07ZM25.89 13.94C23.95 13.92 22.04 13.32 20.46 12.19V20.47C20.01 27.66 10.58 29.89 7.06 23.71C4.1 18.51 8.39 12.27 14.22 13V17C11.17 16.05 8.71 19.65 10.7 22.18C12.6 24.59 16.59 23.19 16.59 20.22V4.62H20.46C20.43 7.6 22.94 10.02 25.89 10.06V13.94Z" fill="white"/>
<path d="M20.4601 4.62012C20.4301 7.60012 22.9401 10.0201 25.8901 10.0601V13.9401C23.9501 13.9201 22.0401 13.3201 20.4601 12.1901V20.4701C20.0101 27.6601 10.5801 29.8901 7.06011 23.7101C4.10011 18.5101 8.39011 12.2701 14.2201 13.0001V17.0001C11.1701 16.0501 8.71011 19.6501 10.7001 22.1801C12.6901 24.7101 16.5901 23.1901 16.5901 20.2201V4.62012H20.4601Z" fill="#1C2851"/>
</g>
<defs>
<clipPath id="clip0_1583_3953">
<rect width="32" height="32" rx="4" fill="white"/>
</clipPath>
</defs>
</svg>
