<svg width="32" height="32" viewBox="0 0 32 32" fill="none" xmlns="http://www.w3.org/2000/svg">
<g clip-path="url(#clip0_1583_3978)">
<path d="M29.07 0H0V32H32V0H29.07ZM20.4 27.12L14.51 18.5L7.09 27.12H5.19L13.65 17.21L5.18 4.88H11.64L17.22 13.07L24.3 4.88H26.14L18.11 14.29L26.89 27.13H20.4V27.12Z" fill="white"/>
<path d="M11.6299 4.87988L17.2099 13.0699L24.2899 4.87988H26.1299L18.0999 14.2899L26.8799 27.1299H20.3899L14.4999 18.5099L7.07993 27.1299H5.17993L13.6399 17.2199L5.17993 4.87988H11.6399H11.6299ZM24.2699 25.7499L10.6999 6.30988H7.79993L16.7899 19.2699L21.3599 25.7499H24.2599H24.2699Z" fill="#1C2851"/>
<path d="M24.2701 25.7496H21.36L16.79 19.2696L7.80005 6.30957H10.7L24.2701 25.7496Z" fill="white"/>
</g>
<defs>
<clipPath id="clip0_1583_3978">
<rect width="32" height="32" rx="4" fill="white"/>
</clipPath>
</defs>
</svg>
