<svg width="11" height="13" viewBox="0 0 11 13" fill="none" xmlns="http://www.w3.org/2000/svg">
<g id="box-arrow-bg">
<path id="box-arrow-bg (Stroke)" fill-rule="evenodd" clip-rule="evenodd" d="M1 11C1 11.2761 1.22386 11.5 1.5 11.5L9.5 11.5C9.77614 11.5 10 11.2761 10 11L10 2C10 1.72386 9.77614 1.5 9.5 1.5L1.5 1.5C1.22386 1.5 1 1.72386 1 2L1 4C1 4.27614 0.776142 4.5 0.5 4.5C0.223857 4.5 -3.59476e-07 4.27614 -3.71547e-07 4L-4.5897e-07 2C-4.95181e-07 1.17157 0.671572 0.5 1.5 0.5L9.5 0.5C10.3284 0.5 11 1.17157 11 2L11 11C11 11.8284 10.3284 12.5 9.5 12.5L1.5 12.5C0.671573 12.5 -2.93554e-08 11.8284 -6.55671e-08 11L-1.5299e-07 9C-1.6506e-07 8.72386 0.223857 8.5 0.5 8.5C0.776142 8.5 1 8.72386 1 9L1 11Z" fill="#667085"/>
</g>
</svg>
